<svg width="189" height="179" viewBox="0 0 189 179" fill="none" xmlns="http://www.w3.org/2000/svg">
<path d="M63.3963 150.92V154.787C63.3963 161.414 68.7689 166.787 75.3963 166.787H105.651C112.278 166.787 117.651 161.414 117.651 154.787V150.92M63.3963 150.92V137.053C63.3963 135.949 64.2917 135.053 65.3963 135.053H67.491M63.3963 150.92H117.651M117.651 150.92V137.053C117.651 135.949 116.755 135.053 115.651 135.053H90.5235M90.5235 135.053V96.1538M90.5235 135.053H67.491M90.5235 96.1538L79.2632 84.8934M90.5235 96.1538L101.784 84.8934M67.491 135.053V121.281C67.491 118.629 66.413 116.088 64.5995 114.153C26.872 73.8906 34.0866 28.0798 90.5235 28.0798C146.929 28.0798 154.169 74.0557 116.515 114.493C114.66 116.485 113.557 119.098 113.557 121.826V135.565" stroke="#F5F3EF" stroke-width="6"/>
<path d="M76.7041 169.346V174C76.7041 175.105 77.5995 176 78.7041 176H102.343C103.448 176 104.343 175.105 104.343 174V169.346" stroke="#F5F3EF" stroke-width="6"/>
<path d="M3 117.966V90.1064C3 89.3366 3.83333 88.8555 4.5 89.2404L28.6272 103.17C29.2939 103.555 29.2939 104.517 28.6272 104.902L4.5 118.832C3.83333 119.217 3 118.736 3 117.966Z" stroke="#F5F3EF" stroke-width="6"/>
<path d="M163.74 3H144.243C143.69 3 143.243 3.44771 143.243 4V23.497C143.243 24.0493 143.69 24.497 144.243 24.497H163.74C164.292 24.497 164.74 24.0493 164.74 23.497V4C164.74 3.44772 164.292 3 163.74 3Z" stroke="#F5F3EF" stroke-width="6"/>
<path d="M175.213 57.2544H174.74C169.217 57.2544 164.74 61.7315 164.74 67.2544V67.7278C164.74 73.2506 169.217 77.7278 174.74 77.7278H175.213C180.736 77.7278 185.213 73.2506 185.213 67.7278V67.2544C185.213 61.7315 180.736 57.2544 175.213 57.2544Z" stroke="#F5F3EF" stroke-width="6"/>
<path d="M23.9853 53.1598C23.9853 43.9468 23.6782 32.2769 10.1658 32.6864" stroke="#F5F3EF" stroke-width="6"/>
<path d="M24.4971 12.213C24.4971 21.4259 24.1787 33.0956 10.1658 32.6862" stroke="#F5F3EF" stroke-width="6"/>
<path d="M24.497 53.1598C24.497 43.9515 24.8155 32.2876 38.8284 32.6969" stroke="#F5F3EF" stroke-width="6"/>
<path d="M24.497 12.213C24.497 21.4213 24.8155 33.0852 38.8284 32.6759" stroke="#F5F3EF" stroke-width="6"/>
<path d="M152.456 172.929C152.456 160.037 152.023 143.708 133.006 144.281" stroke="#F5F3EF" stroke-width="6"/>
<path d="M153.479 115.604C153.479 128.495 153.024 144.825 133.006 144.252" stroke="#F5F3EF" stroke-width="6"/>
<path d="M153.479 172.929C153.479 160.037 153.911 143.708 172.929 144.281" stroke="#F5F3EF" stroke-width="6"/>
<path d="M153.479 115.604C153.479 128.495 153.911 144.825 172.929 144.252" stroke="#F5F3EF" stroke-width="6"/>
</svg>
