<svg width="215" height="177" viewBox="0 0 215 177" fill="none" xmlns="http://www.w3.org/2000/svg">
<circle cx="103" cy="93" r="75" fill="#F0BBA3"/>
<circle cx="165" cy="138" r="30" fill="#D9CFC5" fill-opacity="0.8"/>
<path d="M10 133V174C10 174.552 10.4477 175 11 175H212C212.552 175 213 174.552 213 174V44.3713C213 44.0713 212.865 43.7871 212.633 43.5972L171.547 10M171.547 10H97.5M171.547 10V42.8973C171.547 43.4496 171.994 43.8973 172.547 43.8973H195.5" stroke="#F7F3EF" stroke-width="4"/>
<path d="M16 18V66.748C16 67.733 17.2738 68.1247 17.8272 67.3099L50.9391 18.5619C51.3901 17.8979 50.9145 17 50.1119 17H17C16.4477 17 16 17.4477 16 18Z" stroke="#F7F3EF" stroke-width="4"/>
<path d="M2 3V119.742C2 120.727 3.27496 121.119 3.82782 120.303L82.9421 3.561C83.3921 2.89698 82.9165 2 82.1143 2H3C2.44772 2 2 2.44772 2 3Z" stroke="#F7F3EF" stroke-width="4"/>
<path d="M45.5 58.5L39 54" stroke="#F7F3EF" stroke-width="4"/>
<path d="M38.5 68.5L32 64" stroke="#F7F3EF" stroke-width="4"/>
<path d="M31.5 78.5L25 74" stroke="#F7F3EF" stroke-width="4"/>
<path d="M24.5 89.5L18 85" stroke="#F7F3EF" stroke-width="4"/>
<path d="M53 47.5L46.5 43" stroke="#F7F3EF" stroke-width="4"/>
<path d="M60.5 36.5L54 32" stroke="#F7F3EF" stroke-width="4"/>
<path d="M67.5 26.5L61 22" stroke="#F7F3EF" stroke-width="4"/>
<path d="M32 149H74M32 156C33.2 156 42.8333 156 47.5 156" stroke="#F7F3EF" stroke-width="4"/>
<path d="M32 90.5V94.5M86 139H82M59.5 50.5H82M101 139H125.5M32 94.5V138C32 138.552 32.4477 139 33 139H82M32 94.5H82M82 94.5V90M82 94.5V99M82 78V50.5M82 50.5H125.5M82 111V139M125.5 139H162C162.552 139 163 138.552 163 138V76.5M125.5 139V135M125.5 123V76.5M125.5 50.5H162C162.552 50.5 163 50.9477 163 51.5V76.5M125.5 50.5V76.5M125.5 76.5H149M163 76.5C161.8 76.5 160 76.5 159 76.5" stroke="#F7F3EF" stroke-width="4"/>
<path d="M171 132H176M179 132H201.5" stroke="#F7F3EF" stroke-width="4"/>
<path d="M171 139H176M179 139H201.5" stroke="#F7F3EF" stroke-width="4"/>
<path d="M171 125H175.918M178.869 125H201" stroke="#F7F3EF" stroke-width="4"/>
<path d="M171 118H175.918M178.869 118H201" stroke="#F7F3EF" stroke-width="4"/>
<path d="M171 111H175.918M178.869 111H201" stroke="#F7F3EF" stroke-width="4"/>
<path d="M171 104H175.918M178.869 104H201" stroke="#F7F3EF" stroke-width="4"/>
</svg>
