<svg width="199" height="177" viewBox="0 0 199 177" fill="none" xmlns="http://www.w3.org/2000/svg">
<circle cx="100.835" cy="82.8351" r="74.8351" fill="#F0BBA3"/>
<circle cx="29.9341" cy="140.934" r="29.9341" fill="#D9CFC5" fill-opacity="0.8"/>
<path d="M63.6467 129.419H138.752" stroke="#2D2D2D" stroke-width="4"/>
<path d="M63.6467 122.168H138.752" stroke="#2D2D2D" stroke-width="4"/>
<path d="M63.6467 114.916H138.752" stroke="#2D2D2D" stroke-width="4"/>
<path d="M63.6467 107.665H138.752" stroke="#2D2D2D" stroke-width="4"/>
<path d="M63.6467 100.413H138.752" stroke="#2D2D2D" stroke-width="4"/>
<path d="M63.6467 93.1617H138.752" stroke="#2D2D2D" stroke-width="4"/>
<path d="M63.6467 85.9102H138.752" stroke="#2D2D2D" stroke-width="4"/>
<path d="M115.443 148.066H138.751" stroke="#2D2D2D" stroke-width="4"/>
<path d="M53.2874 175C54.5259 175 127.204 175 165.265 175C166.37 175 167.239 174.105 167.239 173V10.2874" stroke="#2D2D2D" stroke-width="4"/>
<path d="M67.2725 2L45.5858 23.6867C45.2107 24.0617 45 24.5705 45 25.1009V162.123C45 163.227 45.8954 164.123 47 164.123H154.362C155.467 164.123 156.362 163.227 156.362 162.123V4C156.362 2.89543 155.467 2 154.362 2H67.2725ZM67.2725 2V22.2725C67.2725 23.377 66.377 24.2725 65.2725 24.2725H56.3952" stroke="#2D2D2D" stroke-width="4"/>
<path d="M79.1855 60.012H67.2724H65.4595C62.7419 60.012 60.5388 62.215 60.5388 64.9326V64.9326C60.5388 67.6502 62.7419 69.8533 65.4595 69.8533H135.903C138.62 69.8533 140.823 67.6502 140.823 64.9326V64.9326C140.823 62.215 138.62 60.012 135.903 60.012H121.659" stroke="#2D2D2D" stroke-width="4"/>
<path d="M67.2778 58.976C66.5416 50.3433 70.2592 31.4203 91.019 24.7904" stroke="#2D2D2D" stroke-width="4"/>
<path d="M135.041 58.976C135.777 50.3433 132.059 31.4203 111.299 24.7904" stroke="#2D2D2D" stroke-width="4"/>
<path d="M91.6167 36.7036V22.5389C91.6167 19.7775 93.8553 17.5389 96.6167 17.5389H105.781C108.543 17.5389 110.781 19.7775 110.781 22.5389V36.7036" stroke="#2D2D2D" stroke-width="4"/>
<path d="M182.778 123.74L187.584 141.102C188.126 143.058 190.898 143.058 191.439 141.102L196.245 123.74M182.778 123.74H196.245M182.778 123.74V54.7579M196.245 123.74V54.7579M182.778 54.7579H196.245M182.778 54.7579V51.804M196.245 54.7579V51.804M182.778 51.804V46.0269C182.778 42.3081 185.793 39.2934 189.512 39.2934V39.2934C193.231 39.2934 196.245 42.3081 196.245 46.0269V51.804M182.778 51.804C183.576 51.804 192.089 51.804 196.245 51.804" stroke="#2D2D2D" stroke-width="4"/>
</svg>
