<svg width="185" height="153" viewBox="0 0 185 153" fill="none" xmlns="http://www.w3.org/2000/svg">
<path d="M9.1582 114.462V149.292C9.1582 149.844 9.60592 150.292 10.1582 150.292H181.334C181.886 150.292 182.334 149.844 182.334 149.292V38.9244C182.334 38.6243 182.199 38.3402 181.967 38.1502L146.97 9.5332M146.97 9.5332H83.8028M146.97 9.5332V37.4503C146.97 38.0026 147.418 38.4503 147.97 38.4503H167.405" stroke="#F7F3EF" stroke-width="4"/>
<path d="M14.2773 16.5046V57.466C14.2773 58.4509 15.5511 58.8426 16.1046 58.0278L43.9273 17.0665C44.3783 16.4026 43.9027 15.5046 43.1001 15.5046H15.2773C14.7251 15.5046 14.2773 15.9524 14.2773 16.5046Z" stroke="#F7F3EF" stroke-width="4"/>
<path d="M2.33398 3.7085V102.673C2.33398 103.659 3.60894 104.05 4.1618 103.234L71.2287 4.2695C71.6787 3.60547 71.203 2.7085 70.4009 2.7085H3.33398C2.7817 2.7085 2.33398 3.15621 2.33398 3.7085Z" stroke="#F7F3EF" stroke-width="4"/>
<path d="M39.4435 50.9075L33.8984 47.0686" stroke="#F7F3EF" stroke-width="4"/>
<path d="M33.4718 59.4385L27.9268 55.5996" stroke="#F7F3EF" stroke-width="4"/>
<path d="M27.5001 67.9692L21.9551 64.1304" stroke="#F7F3EF" stroke-width="4"/>
<path d="M21.5284 77.353L15.9834 73.5142" stroke="#F7F3EF" stroke-width="4"/>
<path d="M45.8409 41.5237L40.2959 37.6848" stroke="#F7F3EF" stroke-width="4"/>
<path d="M52.2394 32.1399L46.6943 28.301" stroke="#F7F3EF" stroke-width="4"/>
<path d="M58.211 23.6089L52.666 19.77" stroke="#F7F3EF" stroke-width="4"/>
<path d="M27.9268 128.111H63.7561M27.9268 134.083C28.9505 134.083 37.1685 134.083 41.1495 134.083" stroke="#F7F3EF" stroke-width="4"/>
<path d="M27.9268 78.2062V81.6186M73.9931 119.581H70.5808M51.3865 44.083H70.5808M86.7893 119.581H107.69M27.9268 81.6186V118.581C27.9268 119.133 28.3745 119.581 28.9268 119.581H70.5808M27.9268 81.6186H70.5808M70.5808 81.6186V77.7797M70.5808 81.6186V85.4574M70.5808 67.5427V44.083M70.5808 44.083H107.69M70.5808 95.6944V119.581M107.69 119.581H138.68C139.233 119.581 139.68 119.133 139.68 118.581V66.2631M107.69 119.581V116.168M107.69 105.931V66.2631M107.69 44.083H138.68C139.233 44.083 139.68 44.5307 139.68 45.083V66.2631M107.69 44.083V66.2631M107.69 66.2631H127.737M139.68 66.2631C138.657 66.2631 137.121 66.2631 136.268 66.2631" stroke="#F7F3EF" stroke-width="4"/>
<path d="M146.505 113.609H150.77M153.33 113.609H172.524" stroke="#F7F3EF" stroke-width="4"/>
<path d="M146.505 119.581H150.77M153.33 119.581H172.524" stroke="#F7F3EF" stroke-width="4"/>
<path d="M146.505 107.637H150.7M153.218 107.637H172.097" stroke="#F7F3EF" stroke-width="4"/>
<path d="M146.505 101.666H150.7M153.218 101.666H172.097" stroke="#F7F3EF" stroke-width="4"/>
<path d="M146.505 95.6943H150.7M153.218 95.6943H172.097" stroke="#F7F3EF" stroke-width="4"/>
<path d="M146.505 89.7227H150.7M153.218 89.7227H172.097" stroke="#F7F3EF" stroke-width="4"/>
</svg>
