<svg width="177" height="178" viewBox="0 0 177 178" fill="none" xmlns="http://www.w3.org/2000/svg">
<path d="M54.6031 23.0682V21.9696C54.6031 10.9916 43.7419 2.17427 32.7641 2.22106C21.3587 2.26967 13.5349 11.7796 13.5349 23.1851C13.5349 34.124 22.4026 43.0682 33.3416 43.0682H34.6031C45.6488 43.0682 54.6031 34.1139 54.6031 23.0682Z" stroke="#F5F3EF" stroke-width="4"/>
<path d="M40.2293 14.3204H33.5558M25.8555 30.7477H33.5558M33.5558 14.3204H30.989C28.7209 14.3204 26.8822 16.1591 26.8822 18.4272V18.4272C26.8822 20.6954 28.7209 22.5341 30.989 22.5341H35.0958C37.364 22.5341 39.2026 24.3727 39.2026 26.6409V26.6409C39.2026 28.909 37.364 30.7477 35.0958 30.7477H33.5558M33.5558 14.3204V9.18689M33.5558 30.7477V35.8812" stroke="#F5F3EF" stroke-width="4"/>
<path d="M100.805 46.6825V45.5838C100.805 34.6058 89.9438 25.7885 78.966 25.8353C67.5606 25.8839 59.7368 35.3939 59.7368 46.7993C59.7368 57.7382 68.6046 66.6825 79.5435 66.6825H80.805C91.8507 66.6825 100.805 57.7282 100.805 46.6825Z" stroke="#F5F3EF" stroke-width="4"/>
<path d="M58.71 65.6558H101.832" stroke="#F5F3EF" stroke-width="6"/>
<path d="M86.431 37.9347H79.7574M72.0571 54.362H79.7574M79.7574 37.9347H77.1907C74.9225 37.9347 73.0838 39.7734 73.0838 42.0415V42.0415C73.0838 44.3096 74.9225 46.1483 77.1907 46.1483H81.2975C83.5656 46.1483 85.4043 47.987 85.4043 50.2551V50.2551C85.4043 52.5233 83.5656 54.362 81.2975 54.362H79.7574M79.7574 37.9347V32.8011M79.7574 54.362V59.4955" stroke="#F5F3EF" stroke-width="4"/>
<path d="M60.7634 54.3619C33.0422 60.5222 6.34805 106.724 43.8228 140.605M46.9029 125.718C41.7694 140.605 42.9316 160.532 46.9029 167.813C53.0632 179.107 67.4371 176.026 68.9771 164.733L70.7208 155.578C70.9005 154.635 71.7253 153.952 72.6855 153.952H113.125" stroke="#F5F3EF" stroke-width="6"/>
<path d="M113.125 142.145C112.099 152.926 115.179 175 126.473 175C144.506 175 135.713 149.332 139.306 145.226C142.829 141.2 151.779 142.107 160.835 122.798C161.169 122.086 161.887 121.611 162.674 121.611H171.188C172.292 121.611 173.188 120.716 173.188 119.611V94.8634C173.188 93.7588 172.294 92.8634 171.189 92.8634C168.293 92.8634 164.549 92.8634 162.287 92.8634C161.208 92.8634 160.334 92.0057 160.217 90.9326C158.623 76.269 144.594 62.0121 133.446 57.4323C132.658 57.1089 132.119 56.3582 132.119 55.5068V34.8011C132.119 33.6966 131.219 32.7937 130.116 32.8617C113.801 33.8689 110.572 47.137 109.366 50.5388C109.189 51.0388 108.721 51.282 108.191 51.282C105.468 51.282 101.175 51.282 100.805 51.282" stroke="#F5F3EF" stroke-width="6"/>
<path d="M139.306 80.0295V91.3233" stroke="#F5F3EF" stroke-width="6"/>
<path d="M24.8287 102.104C20.0374 101.419 7.4501 101.09 3.78123 109.804C-0.325516 119.558 13.0216 125.205 14.5616 114.938" stroke="#F5F3EF" stroke-width="6"/>
</svg>
