<svg width="175" height="178" viewBox="0 0 175 178" fill="none" xmlns="http://www.w3.org/2000/svg">
<path d="M11.0264 142.162H6C3.79086 142.162 2 143.953 2 146.162V153.194M18.0469 142.162H31.0968C33.3059 142.162 35.0968 143.953 35.0968 146.162V153.194M2 164.227V171.259C2 173.468 3.79086 175.259 6 175.259H31.0968C33.3059 175.259 35.0968 173.468 35.0968 171.259V164.227M2 164.227H35.0968M2 164.227V153.194M35.0968 164.227V153.194M2 153.194H35.0968" stroke="#F5F3EF" stroke-width="4"/>
<path d="M47.1318 164.227V171.259C47.1318 173.468 48.9227 175.259 51.1318 175.259H76.2286C78.4378 175.259 80.2286 173.468 80.2286 171.259V164.227M47.1318 164.227H80.2286M47.1318 164.227V153.194M80.2286 164.227V153.194M47.1318 153.194V124.098C47.1318 121.889 48.9227 120.098 51.1318 120.098H76.2286C78.4377 120.098 80.2286 121.889 80.2286 124.098V153.194M47.1318 153.194H80.2286M47.1318 131.13H80.2286M47.1318 142.162H80.2286" stroke="#F5F3EF" stroke-width="4"/>
<path d="M92.2642 164.227V171.259C92.2642 173.468 94.055 175.259 96.2642 175.259H121.361C123.57 175.259 125.361 173.468 125.361 171.259V164.227M92.2642 164.227H125.361M92.2642 164.227V153.194M125.361 164.227V153.194M92.2642 153.194V113.065C92.2642 110.856 94.055 109.065 96.2642 109.065H121.361C123.57 109.065 125.361 110.856 125.361 113.065V153.194M92.2642 153.194H125.361M92.2642 131.13H125.361M92.2642 142.162H125.361M92.2642 120.098H125.361" stroke="#F5F3EF" stroke-width="4"/>
<path d="M137.396 164.227V171.259C137.396 173.468 139.187 175.259 141.396 175.259H166.493C168.702 175.259 170.493 173.468 170.493 171.259V164.227M137.396 164.227H170.493M137.396 164.227V153.194M170.493 164.227V153.194M137.396 153.194V91.0009C137.396 88.7917 139.187 87.0009 141.396 87.0009H166.493C168.702 87.0009 170.493 88.7917 170.493 91.0009V98.0331M137.396 153.194H170.493M170.493 153.194V98.0331M137.396 131.13H170.493M137.396 142.162H170.493M137.396 120.098H170.493M137.396 109.065H170.493M137.396 98.0331H155.449M170.493 98.0331H162.469" stroke="#F5F3EF" stroke-width="4"/>
<path d="M2 112.622V98.6863C2 97.9718 2.3812 97.3115 3 96.9542L62.8528 62.3982C63.6367 61.9456 64.6269 62.076 65.267 62.7161L82.6214 80.0705C83.4025 80.8516 84.6688 80.8516 85.4499 80.0705L143.831 21.6897C144.206 21.3147 144.31 20.8256 143.969 20.4189C142.955 19.2074 140.387 16.7258 138.075 14.5601C136.921 13.4791 137.395 11.5403 138.922 11.1311L169.654 2.89658C171.141 2.4981 172.502 3.85893 172.103 5.34607L163.886 36.0155C163.487 37.5026 161.628 38.0007 160.54 36.9121L155.265 31.6378C154.484 30.8568 153.218 30.8568 152.437 31.6378L85.4499 98.6248C84.6688 99.4058 83.4025 99.4058 82.6214 98.6248L65.267 81.2703C64.6269 80.6302 63.6367 80.4999 62.8528 80.9525L5 114.354C3.66667 115.124 2 114.161 2 112.622Z" stroke="#F5F3EF" stroke-width="4"/>
<path d="M27.5747 7.76929V68.9482M38.1056 20.8074C32.5894 9.77515 16.5425 13.2854 16.5425 25.3206C16.5425 40.8984 38.1056 33.8455 38.1056 50.8954C38.1056 63.972 22.0586 66.4408 16.5425 55.4086" stroke="#F5F3EF" stroke-width="4"/>
</svg>
