<svg width="215" height="177" viewBox="0 0 215 177" fill="none" xmlns="http://www.w3.org/2000/svg">
<circle cx="90.7736" cy="88.1649" r="74.8351" fill="#F0BBA3"/>
<circle cx="168.201" cy="36.9341" r="29.9341" fill="#D9CFC5" fill-opacity="0.8"/>
<path d="M2 134.497V145.196C2 147.957 4.23857 150.196 7 150.196H208C210.761 150.196 213 147.957 213 145.196V134.497M2 134.497V7C2 4.23858 4.23858 2 7 2H208C210.761 2 213 4.23858 213 7V134.497M2 134.497H213" stroke="#F5F3EF" stroke-width="4"/>
<path d="M83.006 149.882L79.8042 167.779" stroke="#F5F3EF" stroke-width="4"/>
<path d="M143.914 168.72H70.7469C69.0129 168.72 67.6372 170.126 67.6372 171.86C67.6372 173.594 69.0429 175 70.7769 175H143.903C145.637 175 147.042 173.594 147.042 171.86C147.042 170.126 145.648 168.72 143.914 168.72Z" stroke="#F5F3EF" stroke-width="4"/>
<path d="M132.314 150.51L135.516 168.092" stroke="#F5F3EF" stroke-width="4"/>
<path d="M110.24 141.719H104.439C103.919 141.719 103.498 142.14 103.498 142.66C103.498 143.181 103.919 143.602 104.439 143.602H110.24C110.76 143.602 111.182 143.181 111.182 142.66C111.182 142.14 110.76 141.719 110.24 141.719Z" stroke="#F5F3EF" stroke-width="4"/>
<path d="M94.2074 50.6042V18.1869C94.2074 16.53 95.5506 15.1869 97.2075 15.1869H164.323C165.98 15.1869 167.323 16.53 167.323 18.1869V66.0327C167.323 67.6896 165.98 69.0327 164.323 69.0327H154.467C152.81 69.0327 151.467 70.3759 151.467 72.0327V75.4226C151.467 78.0812 148.265 79.426 146.367 77.5646L138.541 69.8907C137.98 69.3408 137.226 69.0327 136.44 69.0327H127.976M51.1062 110.785H61.2563C62.9132 110.785 64.2563 112.128 64.2563 113.785V119.19C64.2563 121.849 67.4586 123.194 69.3568 121.332L79.2378 111.643C79.7986 111.093 80.5528 110.785 81.3383 110.785H119.103C120.76 110.785 122.103 109.442 122.103 107.785V59.0873C122.103 57.4257 120.766 56.0806 119.104 56.087C98.0536 56.1681 62.4424 56.2642 51.3904 56.1496C49.6179 56.1312 48.1062 57.6112 48.1062 59.3837V107.785C48.1062 109.442 49.4493 110.785 51.1062 110.785Z" stroke="#F5F3EF" stroke-width="4"/>
<path d="M68.6609 102.434V101.601C68.6609 92.5198 76.023 85.1577 85.1046 85.1577V85.1577C94.1863 85.1577 101.548 92.5198 101.548 101.601V102.434" stroke="#F5F3EF" stroke-width="4"/>
<path d="M85.2641 65.8655H84.9453C80.4925 65.8655 76.8828 69.4752 76.8828 73.928C76.8828 78.3807 80.4925 81.9904 84.9453 81.9904H85.2641C89.7169 81.9904 93.3266 78.3807 93.3266 73.928C93.3266 69.4752 89.7169 65.8655 85.2641 65.8655Z" stroke="#F5F3EF" stroke-width="4"/>
<path d="M113.294 50.6042V50.6042C113.294 47.1056 116.13 44.2694 119.629 44.2694H129.738C138.819 44.2694 146.181 51.6315 146.181 60.7132V61.5461" stroke="#F5F3EF" stroke-width="4"/>
<path d="M129.897 24.9772H129.578C125.126 24.9772 121.516 28.5869 121.516 33.0396C121.516 37.4924 125.126 41.1021 129.578 41.1021H129.897C134.35 41.1021 137.96 37.4924 137.96 33.0396C137.96 28.5869 134.35 24.9772 129.897 24.9772Z" stroke="#F5F3EF" stroke-width="4"/>
</svg>
