<svg width="178" height="177" viewBox="0 0 178 177" fill="none" xmlns="http://www.w3.org/2000/svg">
<path d="M32.6446 2.51953H20.179V29.6907C20.179 31.8998 21.9698 33.6907 24.179 33.6907H28.6446C30.8538 33.6907 32.6446 31.8998 32.6446 29.6907V2.51953Z" stroke="#F5F3EF" stroke-width="4"/>
<path d="M66.4058 2H53.9402V29.1712C53.9402 31.3803 55.731 33.1712 57.9402 33.1712H62.4059C64.615 33.1712 66.4058 31.3803 66.4058 29.1712V2Z" stroke="#F5F3EF" stroke-width="4"/>
<path d="M100.687 2H88.2209V29.1712C88.2209 31.3803 90.0118 33.1712 92.2209 33.1712H96.6866C98.8958 33.1712 100.687 31.3803 100.687 29.1712V2Z" stroke="#F5F3EF" stroke-width="4"/>
<path d="M134.967 2H122.501V29.1712C122.501 31.3803 124.292 33.1712 126.501 33.1712H130.967C133.176 33.1712 134.967 31.3803 134.967 29.1712V2Z" stroke="#F5F3EF" stroke-width="4"/>
<path d="M20.1791 18.1051H10C5.58172 18.1051 2 21.6868 2 26.1051V51.3544M119.385 151.622H10C5.58172 151.622 2 148.04 2 143.622V51.3544M32.6448 18.1051H53.4209M66.9253 18.1051H88.2209M100.687 18.1051H122.501M134.967 18.1051H146.185C150.603 18.1051 154.185 21.6868 154.185 26.1051V51.3544M154.185 64.3423V51.3544M2 51.3544H154.185" stroke="#F5F3EF" stroke-width="4"/>
<path d="M30.7232 65.3822H23.1394C20.9303 65.3822 19.1394 67.1731 19.1394 69.3822V76.966C19.1394 79.1752 20.9303 80.966 23.1394 80.966H30.7232C32.9324 80.966 34.7232 79.1752 34.7232 76.966V69.3822C34.7232 67.1731 32.9324 65.3822 30.7232 65.3822Z" stroke="#F5F3EF" stroke-width="4"/>
<path d="M64.4845 65.3822H56.9006C54.6915 65.3822 52.9006 67.1731 52.9006 69.3822V76.966C52.9006 79.1752 54.6915 80.966 56.9006 80.966H64.4845C66.6936 80.966 68.4845 79.1752 68.4845 76.966V69.3822C68.4845 67.1731 66.6936 65.3822 64.4845 65.3822Z" stroke="#F5F3EF" stroke-width="4"/>
<path d="M98.765 65.3822H91.1812C88.972 65.3822 87.1812 67.1731 87.1812 69.3822V76.966C87.1812 79.1752 88.972 80.966 91.1812 80.966H98.765C100.974 80.966 102.765 79.1752 102.765 76.966V69.3822C102.765 67.1731 100.974 65.3822 98.765 65.3822Z" stroke="#F5F3EF" stroke-width="4"/>
<path d="M30.7232 94.4753H23.1394C20.9303 94.4753 19.1394 96.2662 19.1394 98.4753V106.059C19.1394 108.268 20.9303 110.059 23.1394 110.059H30.7232C32.9324 110.059 34.7232 108.268 34.7232 106.059V98.4753C34.7232 96.2662 32.9324 94.4753 30.7232 94.4753Z" stroke="#F5F3EF" stroke-width="4"/>
<path d="M64.4845 94.4753H56.9006C54.6915 94.4753 52.9006 96.2662 52.9006 98.4753V106.059C52.9006 108.268 54.6915 110.059 56.9006 110.059H64.4845C66.6936 110.059 68.4845 108.268 68.4845 106.059V98.4753C68.4845 96.2662 66.6936 94.4753 64.4845 94.4753Z" stroke="#F5F3EF" stroke-width="4"/>
<path d="M98.765 94.4753H91.1812C88.972 94.4753 87.1812 96.2662 87.1812 98.4753V106.059C87.1812 108.268 88.972 110.059 91.1812 110.059H98.765C100.974 110.059 102.765 108.268 102.765 106.059V98.4753C102.765 96.2662 100.974 94.4753 98.765 94.4753Z" stroke="#F5F3EF" stroke-width="4"/>
<path d="M30.7232 123.568H23.1394C20.9303 123.568 19.1394 125.359 19.1394 127.568V135.152C19.1394 137.361 20.9303 139.152 23.1394 139.152H30.7232C32.9324 139.152 34.7232 137.361 34.7232 135.152V127.568C34.7232 125.359 32.9324 123.568 30.7232 123.568Z" stroke="#F5F3EF" stroke-width="4"/>
<path d="M64.4845 123.568H56.9006C54.6915 123.568 52.9006 125.359 52.9006 127.568V135.152C52.9006 137.361 54.6915 139.152 56.9006 139.152H64.4845C66.6936 139.152 68.4845 137.361 68.4845 135.152V127.568C68.4845 125.359 66.6936 123.568 64.4845 123.568Z" stroke="#F5F3EF" stroke-width="4"/>
<path d="M98.765 123.568H91.1812C88.972 123.568 87.1812 125.359 87.1812 127.568V135.152C87.1812 137.361 88.972 139.152 91.1812 139.152H98.765C100.974 139.152 102.765 137.361 102.765 135.152V127.568C102.765 125.359 100.974 123.568 98.765 123.568Z" stroke="#F5F3EF" stroke-width="4"/>
<path d="M120.943 75.7718V97.4115C120.943 109.562 130.793 119.411 142.943 119.411H147.248C159.398 119.411 169.248 109.562 169.248 97.4115V75.7718M118.866 63.8229H171.845C174.14 63.8229 176 65.6837 176 67.979V71.0961C176 73.3915 174.14 75.2523 171.845 75.2523H118.866C116.571 75.2523 114.71 73.3915 114.71 71.0961V67.979C114.71 65.6837 116.571 63.8229 118.866 63.8229Z" stroke="#F5F3EF" stroke-width="4"/>
<path d="M120.943 163.051V141.411C120.943 129.261 130.793 119.411 142.943 119.411H147.248C159.398 119.411 169.248 129.261 169.248 141.411V163.051M118.866 175H171.845C174.14 175 176 173.139 176 170.844V167.727C176 165.431 174.14 163.571 171.845 163.571H118.866C116.571 163.571 114.71 165.431 114.71 167.727V170.844C114.71 173.139 116.571 175 118.866 175Z" stroke="#F5F3EF" stroke-width="4"/>
<path d="M159.379 91.3573H130.292V98.5795C130.292 105.207 135.665 110.58 142.292 110.58H147.379C154.006 110.58 159.379 105.207 159.379 98.5795V91.3573Z" stroke="#F5F3EF" stroke-width="4"/>
<path d="M159.379 154.739H130.292V153.751C130.292 147.123 135.665 141.751 142.292 141.751H147.379C154.006 141.751 159.379 147.123 159.379 153.751V154.739Z" stroke="#F5F3EF" stroke-width="4"/>
</svg>
