<svg width="201" height="177" viewBox="0 0 201 177" fill="none" xmlns="http://www.w3.org/2000/svg">
<path d="M198.479 164.496H2V175H198.479V164.496Z" stroke="#F5F3EF" stroke-width="4"/>
<path d="M11.8857 165.114V142.871M65.0215 165.114V142.871M11.8857 142.871V114.45H65.0215V142.871M11.8857 142.871H65.0215M30.4215 128.661H46.4857" stroke="#F5F3EF" stroke-width="4"/>
<path d="M32.275 114.45L20.8085 94.5893C20.0387 93.256 21.0009 91.5893 22.5405 91.5893H37.415M42.5549 114.45L54.0215 94.5893C54.7913 93.256 53.829 91.5893 52.2894 91.5893H37.415M37.415 91.5893C27.6695 92.0012 19.0764 85.4108 19.0764 73.0536C19.0764 67.0931 29.4981 69.3934 29.8037 70.9146M37.415 91.5893C34.3951 84.8583 30.8937 77.1569 29.8037 70.9146M37.415 91.5893C48.4708 89.1179 58.225 84.175 58.225 71.8179C58.225 67.1124 48.9571 68.1108 47.5106 70.9146M37.415 91.5893C42.7083 83.7896 46.2828 76.5752 47.5106 70.9146M29.8037 70.9146C28.5924 63.9779 30.3586 58.8429 39.0714 58.8429C46.7472 58.8429 49.1034 63.5714 47.5106 70.9146" stroke="#F5F3EF" stroke-width="4"/>
<path d="M86.3376 107.036H80.9072C77.5935 107.036 74.9072 109.722 74.9072 113.036V145.668C74.9072 147.877 76.6981 149.668 78.9072 149.668H94.0608M86.3376 107.036H91.7679C95.0817 107.036 97.7679 109.722 97.7679 113.036V125.279C97.7679 127.488 99.5588 129.279 101.768 129.279H164.204C166.413 129.279 168.204 127.488 168.204 125.279V113.036C168.204 109.722 170.89 107.036 174.204 107.036H179.325M86.3376 107.036V88.7928C86.3376 86.5837 88.1284 84.7928 90.3376 84.7928H175.325C177.534 84.7928 179.325 86.5837 179.325 88.7928V107.036M179.325 107.036H184.447C187.76 107.036 190.447 109.722 190.447 113.036V145.668C190.447 147.877 188.656 149.668 186.447 149.668H170.675M94.0608 149.668V164.496M94.0608 149.668H110.125M110.125 149.668L99.0037 164.496M110.125 149.668H155.935M170.675 149.668V164.496M170.675 149.668H155.935M164.497 164.496L155.935 149.668" stroke="#F5F3EF" stroke-width="4"/>
<path d="M76.1429 109.507V39.6893M76.1429 39.6893H57.6468C56.3616 39.6893 55.41 38.4945 55.6974 37.2419L63.4294 3.55262C63.6379 2.64403 64.4465 2 65.3787 2H86.907C87.8393 2 88.6478 2.64403 88.8564 3.55262L96.5883 37.2419C96.8758 38.4945 95.9242 39.6893 94.639 39.6893H86.6465M76.1429 39.6893H86.6465M86.6465 39.6893V55.7536" stroke="#F5F3EF" stroke-width="4"/>
</svg>
